<svg width="61" height="37" xmlns="http://www.w3.org/2000/svg"><g fill="none"><rect width="61" height="37" rx="2" fill="#fff"/><rect x=".5" y=".5" width="60" height="36" rx="1.5" stroke="#000"/><path d="M18.124 32.76l-2.78-2.195-2.928 2.356-.006-15.754 5.706-.16.008 15.754z" fill="#EB5757"/><path d="M5.54 16.558l-2.085-2.866L0 15.168 4.24 0l5.538 1.39L5.54 16.558z" stroke-miterlimit="10" transform="rotate(-15.699 70.586 -21.047) skewX(-.063)" stroke="#000"/><path d="M15.589 6.803l2.723-1.322 1.664 2.437 3.056.146.153 2.898 2.57 1.575-1.397 2.582 1.397 2.583-2.57 1.575-.153 2.899-3.056.145-1.664 2.437-2.723-1.322-2.727 1.322-1.66-2.437-3.057-.145-.153-2.899-2.57-1.575 1.393-2.583-1.393-2.582 2.57-1.575.153-2.898 3.057-.146 1.66-2.437 2.727 1.322z" fill="#F2C94C"/><path d="M15.589 6.803l2.723-1.322 1.664 2.437 3.056.146.153 2.898 2.57 1.575-1.397 2.582 1.397 2.583-2.57 1.575-.153 2.899-3.056.145-1.664 2.437-2.723-1.322-2.727 1.322-1.66-2.437-3.057-.145-.153-2.899-2.57-1.575 1.393-2.583-1.393-2.582 2.57-1.575.153-2.898 3.057-.146 1.66-2.437 2.727 1.322z" stroke-miterlimit="10" stroke="#000"/><path stroke="#000" d="M28.467 10.463h25.756m-25.756 6.851h25.756m-25.756 6.853h25.756"/></g></svg>